<svg xmlns="http://www.w3.org/2000/svg" xmlns:xlink="http://www.w3.org/1999/xlink" version="1.1" x="0px" y="0px"
     viewBox="0 0 28 36.465" style="enable-background:new 0 0 28 29.172;" xml:space="preserve"><g>
  <path fill="#f2f2f2" d="M14.263,6.759c2.251,0,4.075,1.825,4.075,4.075c0,1.279-0.602,2.406-1.522,3.153l5.387,5.387   c1.308-2.546,2.248-5.448,2.248-8.54c0-5.627-4.561-10.188-10.188-10.188c-2.967,0-5.628,1.275-7.49,3.298l4.337,4.337   C11.856,7.36,12.983,6.759,14.263,6.759z"/>
  <path fill="#f2f2f2" d="M4.075,10.834c0,10.188,10.188,18.338,10.188,18.338s3.033-2.431,5.79-6.291l-15.4-15.4   C4.285,8.531,4.075,9.657,4.075,10.834z"/>
  <path fill="#f2f2f2" d="M27.707,26.293l-26-26c-0.391-0.391-1.023-0.391-1.414,0s-0.391,1.023,0,1.414l26,26C26.488,27.902,26.744,28,27,28   s0.512-0.098,0.707-0.293C28.098,27.316,28.098,26.684,27.707,26.293z"/>
</g>
  <text  x="0" y="44.172" fill="#f2f2f2" font-size="5px" font-weight="bold"
        font-family="'Helvetica Neue', Helvetica, Arial-Unicode, Arial, Sans-serif">Created by Yo! Baba</text>
  <text x="0" y="49.172" fill="#f2f2f2" font-size="5px" font-weight="bold"
        font-family="'Helvetica Neue', Helvetica, Arial-Unicode, Arial, Sans-serif">from the Noun Project</text>
</svg>
